<svg width="200" height="152" viewBox="0 0 200 152" fill="none" xmlns="http://www.w3.org/2000/svg">
<path d="M199.973 3.733C199.966 3.58833 199.952 3.44412 199.93 3.301C199.907 3.174 199.871 3.054 199.837 2.931C199.804 2.80341 199.765 2.67758 199.72 2.554C199.669 2.42946 199.612 2.30763 199.548 2.189C199.491 2.079 199.438 1.968 199.37 1.862C199.289 1.73926 199.2 1.62108 199.106 1.508C199.051 1.439 199.009 1.363 198.948 1.297C198.928 1.276 198.905 1.262 198.886 1.241C198.78 1.13535 198.668 1.03585 198.551 0.943001C198.463 0.869001 198.379 0.789998 198.287 0.724998C198.172 0.649848 198.053 0.580757 197.931 0.518002C197.824 0.458002 197.721 0.392002 197.611 0.344002C197.491 0.291002 197.364 0.257 197.239 0.216C197.117 0.176 196.998 0.130001 196.873 0.102001C196.756 0.0760012 196.633 0.0669981 196.513 0.0519981C196.372 0.0298585 196.229 0.0155043 196.086 0.00899887C196.057 0.00899887 196.03 0 196 0H4C3.97 0 3.944 0.00799887 3.915 0.00899887C3.76631 0.015508 3.61808 0.0301994 3.471 0.0530014C3.357 0.0690014 3.241 0.0760017 3.131 0.101002C2.99766 0.134873 2.86615 0.175591 2.737 0.223C2.622 0.262 2.503 0.292999 2.393 0.341999C2.273 0.393999 2.163 0.463999 2.048 0.528999C1.936 0.591999 1.821 0.649 1.716 0.723C1.62 0.79 1.532 0.873001 1.441 0.949001C1.32688 1.04044 1.21772 1.13791 1.114 1.241C1.094 1.261 1.071 1.276 1.052 1.297C0.992 1.363 0.948999 1.439 0.893999 1.508C0.799579 1.62107 0.711447 1.73925 0.629999 1.862C0.561999 1.968 0.508 2.079 0.452 2.19C0.391 2.31 0.329001 2.428 0.280001 2.554C0.232001 2.678 0.198 2.804 0.163 2.932C0.129 3.054 0.0929997 3.174 0.0699997 3.301C0.0478898 3.44412 0.0335362 3.58833 0.0270004 3.733C0.0210004 3.823 0 3.909 0 4V140C0.00344108 143.182 1.26883 146.232 3.51852 148.481C5.76821 150.731 8.81846 151.997 12 152H188C191.182 151.997 194.232 150.731 196.481 148.481C198.731 146.232 199.997 143.182 200 140V4C200 3.909 199.979 3.823 199.973 3.733ZM185.716 8L100 86.574L14.284 8H185.716ZM188 144H12C10.9395 143.999 9.92266 143.577 9.17274 142.827C8.42282 142.077 8.00106 141.061 8 140V13.093L97.297 94.949C98.0347 95.6253 98.9992 96.0005 100 96.0005C101.001 96.0005 101.965 95.6253 102.703 94.949L192 13.093V140C191.999 141.061 191.577 142.077 190.827 142.827C190.077 143.577 189.061 143.999 188 144Z" fill="#146EB4"/>
</svg>
